<?xml version="1.0" encoding="UTF-8" standalone="no"?>
<!-- Created with Inkscape (http://www.inkscape.org/) -->

<svg
   xmlns:dc="http://purl.org/dc/elements/1.1/"
   xmlns:cc="http://creativecommons.org/ns#"
   xmlns:rdf="http://www.w3.org/1999/02/22-rdf-syntax-ns#"
   xmlns:svg="http://www.w3.org/2000/svg"
   xmlns="http://www.w3.org/2000/svg"
   xmlns:sodipodi="http://sodipodi.sourceforge.net/DTD/sodipodi-0.dtd"
   xmlns:inkscape="http://www.inkscape.org/namespaces/inkscape"
   width="241.41339mm"
   height="244.43719mm"
   viewBox="0 0 241.41339 244.43719"
   version="1.1"
   id="svg1326"
   inkscape:version="0.92.1 r15371"
   sodipodi:docname="cacu3.svg">
  <defs
     id="defs1320">
    <inkscape:path-effect
       effect="bspline"
       id="path-effect126"
       is_visible="true"
       weight="33.333333"
       steps="2"
       helper_size="0"
       apply_no_weight="true"
       apply_with_weight="true"
       only_selected="false" />
    <inkscape:path-effect
       effect="bspline"
       id="path-effect130"
       is_visible="true"
       weight="33.333333"
       steps="2"
       helper_size="0"
       apply_no_weight="true"
       apply_with_weight="true"
       only_selected="false" />
    <inkscape:path-effect
       effect="bspline"
       id="path-effect134"
       is_visible="true"
       weight="33.333333"
       steps="2"
       helper_size="0"
       apply_no_weight="true"
       apply_with_weight="true"
       only_selected="false" />
    <inkscape:path-effect
       effect="bspline"
       id="path-effect140"
       is_visible="true"
       weight="33.333333"
       steps="2"
       helper_size="0"
       apply_no_weight="true"
       apply_with_weight="true"
       only_selected="false" />
    <inkscape:path-effect
       effect="bspline"
       id="path-effect146"
       is_visible="true"
       weight="33.333333"
       steps="2"
       helper_size="0"
       apply_no_weight="true"
       apply_with_weight="true"
       only_selected="false" />
    <inkscape:path-effect
       effect="bspline"
       id="path-effect150"
       is_visible="true"
       weight="33.333333"
       steps="2"
       helper_size="0"
       apply_no_weight="true"
       apply_with_weight="true"
       only_selected="false" />
    <inkscape:path-effect
       effect="bspline"
       id="path-effect154"
       is_visible="true"
       weight="33.333333"
       steps="2"
       helper_size="0"
       apply_no_weight="true"
       apply_with_weight="true"
       only_selected="false" />
    <inkscape:path-effect
       effect="bspline"
       id="path-effect158"
       is_visible="true"
       weight="33.333333"
       steps="2"
       helper_size="0"
       apply_no_weight="true"
       apply_with_weight="true"
       only_selected="false" />
  </defs>
  <sodipodi:namedview
     id="base"
     pagecolor="#ffffff"
     bordercolor="#666666"
     borderopacity="1.0"
     inkscape:pageopacity="0.0"
     inkscape:pageshadow="2"
     inkscape:zoom="0.35"
     inkscape:cx="1660.5"
     inkscape:cy="-158.07145"
     inkscape:document-units="mm"
     inkscape:current-layer="layer1"
     showgrid="false"
     fit-margin-top="0"
     fit-margin-left="0"
     fit-margin-right="0"
     fit-margin-bottom="0"
     inkscape:window-width="1920"
     inkscape:window-height="1017"
     inkscape:window-x="-8"
     inkscape:window-y="-8"
     inkscape:window-maximized="1" />
  <metadata
     id="metadata1323">
    <rdf:RDF>
      <cc:Work
         rdf:about="">
        <dc:format>image/svg+xml</dc:format>
        <dc:type
           rdf:resource="http://purl.org/dc/dcmitype/StillImage" />
        <dc:title></dc:title>
      </cc:Work>
    </rdf:RDF>
  </metadata>
  <g
     inkscape:label="Layer 1"
     inkscape:groupmode="layer"
     id="layer1"
     transform="translate(489.61145,137.42693)">
    <g
       id="g1272"
       transform="translate(342.82443,-35.151786)">
      <g
         id="g1241">
        <ellipse
           style="fill:#000000;stroke:#ff6600;stroke-width:0.26458332"
           id="path39"
           cx="-711.72919"
           cy="19.943453"
           rx="120.5744"
           ry="122.0863" />
        <ellipse
           style="fill:#ff6600;stroke:#ff6600;stroke-width:0.44013545"
           id="path57"
           cx="-711.28638"
           cy="20.256577"
           rx="116.27977"
           ry="117.57025" />
        <ellipse
           style="fill:#ffffff;stroke:#ff6600;stroke-width:0.37185806"
           id="path59"
           cx="-710.93695"
           cy="20.643311"
           rx="101.50878"
           ry="104.18149" />
        <ellipse
           style="fill:#ff6600;stroke:#ff6600;stroke-width:0.41338482"
           id="path61"
           cx="-710.93701"
           cy="20.376036"
           rx="96.677162"
           ry="99.617142" />
        <path
           style="fill:#000000;stroke:#000000;stroke-width:2.02030516"
           d="m -2728.5834,450.748 c -124.5327,-16.10686 -229.4836,-92.40209 -284.8123,-207.04765 -75.5503,-156.546069 -35.7532,-347.44652 95.3713,-457.48161 116.0314,-97.36946 276.3586,-112.1446 408.0223,-37.60179 141.4196,80.06622 214.3722,248.9212233 178.135,412.30897 -32.2854,145.56991 -143.6499,256.31292 -286.855,285.25401 -17.4398,3.52452 -30.3213,4.54914 -62.3841,4.96215 -22.2233,0.28626 -43.5881,0.1089 -47.4772,-0.39408 z"
           id="path63"
           inkscape:connector-curvature="0"
           transform="scale(0.26458333)" />
        <g
           id="g169"
           transform="matrix(2.1274343,0,0,1.4557141,1058.7089,211.54488)">
          <path
             inkscape:connector-curvature="0"
             id="path26"
             d="m -834.40048,-123.92726 c -0.44291,-0.0895 -1.14834,-0.39267 -1.5676,-0.67374 -1.38435,-0.92804 -3.93188,-4.47377 -4.34587,-6.04869 -0.93736,-3.56613 -1.77631,-10.30318 -1.69743,-13.63082 0.13737,-5.79394 1.45368,-9.83323 4.79705,-14.72039 1.62357,-2.37325 2.9793,-3.98663 7.57903,-9.01939 2.0561,-2.24965 2.08361,-2.27164 2.21444,-1.76979 0.0729,0.2795 1.29325,3.55929 2.71199,7.2884 4.0938,10.76057 4.84553,13.34964 5.15902,17.76846 0.20456,2.88386 0.029,4.49639 -0.75204,6.90512 -1.08741,3.35378 -3.38046,7.0218 -6.17644,9.88003 -3.11523,3.18458 -5.66245,4.4774 -7.92215,4.02081 z m 0.13901,-7.24709 c 0.0341,-0.23551 0.0633,-1.4558 0.0649,-2.71178 0.008,-6.46409 1.23231,-17.10521 2.83549,-24.64736 1.17446,-5.52526 1.53111,-7.40794 1.42677,-7.53175 -0.23129,-0.27444 -0.57357,0.16943 -1.14275,1.48188 -0.85447,1.97033 -2.28658,6.35322 -2.90367,8.8865 -1.24651,5.11734 -1.37571,7.41108 -0.83733,14.86479 0.30151,4.1742 0.36712,5.8619 0.28481,7.32654 -0.1221,2.17241 -0.10516,2.75935 0.0796,2.75935 0.0717,0 0.15818,-0.19268 0.19227,-0.42817 z"
             style="fill:#ff6600;stroke:#ff6600;stroke-width:0.16753283" />
          <path
             inkscape:original-d="m -832.69957,-126.19512 c 2.87258,-0.14083 5.74493,-0.28139 8.61698,-0.4217 0.22074,0.12572 0.44125,0.25172 0.66146,0.37798 0.0632,0.18865 0.12626,0.37771 0.18899,0.56697 -0.0312,0.31498 -0.0627,0.62969 -0.0945,0.94494 -0.25197,-2.7e-4 -0.44072,-2.7e-4 -0.66146,0 -2.55413,0.0943 -5.10241,0.18872 -7.65403,0.28348 -2.99235,0.0942 -5.98434,0.18872 -8.97694,0.28348 -0.28323,-0.12627 -0.56668,-0.25225 -0.85042,-0.37797 0,-0.53597 0,-1.0712 0,-1.6064 0.50398,-0.0632 1.00819,-0.12626 1.51188,-0.18899 2.41821,0.0458 4.83894,0.0919 7.25802,0.13821"
             inkscape:path-effect="#path-effect126"
             inkscape:connector-curvature="0"
             id="path124"
             d="m -832.69957,-126.19512 c 2.87259,-0.14058 5.74494,-0.28115 7.29124,-0.28841 1.5463,-0.007 1.76681,0.11875 1.90846,0.27609 0.14166,0.15734 0.20468,0.34642 0.22046,0.59847 0.0158,0.25205 -0.0157,0.56676 -0.15745,0.7244 -0.14175,0.15764 -0.3305,0.15764 -1.71793,0.20494 -1.38743,0.0473 -3.93571,0.14168 -6.7077,0.23618 -2.77198,0.0945 -5.76397,0.18898 -7.40196,0.17326 -1.63799,-0.0157 -1.92144,-0.14171 -2.06324,-0.47271 -0.1418,-0.33101 -0.1418,-0.86624 0.1102,-1.16534 0.252,-0.2991 0.75622,-0.36213 2.21715,-0.37059 1.46094,-0.008 3.88167,0.0376 6.30075,0.0837"
             style="fill:#ff6600;stroke:#ff6600;stroke-width:0.26458332px;stroke-linecap:butt;stroke-linejoin:miter;stroke-opacity:1" />
          <path
             inkscape:original-d="m -827.67336,-124.63244 c -1.00766,1.16516 -2.01559,2.33059 -3.02381,3.49628 0.0318,0.0943 0.0633,0.18872 0.0945,0.28348 -0.0944,9.18106 -0.18873,18.33158 -0.28348,27.49777 0,0.157231 0,0.314716 0,0.472469"
             inkscape:path-effect="#path-effect130"
             inkscape:connector-curvature="0"
             id="path128"
             d="m -827.67336,-124.63244 c -1.00769,1.16514 -2.01562,2.33056 -2.50398,2.96063 -0.48836,0.63006 -0.45688,0.72449 -0.48843,5.36234 -0.0316,4.63785 -0.12588,13.78837 -0.17313,18.450079 -0.0473,4.661712 -0.0473,4.819197 -0.0473,4.97695"
             style="fill:#ff6600;stroke:#ff6600;stroke-width:0.26458332px;stroke-linecap:butt;stroke-linejoin:miter;stroke-opacity:1" />
          <path
             inkscape:original-d="m -838.0677,-124.15997 c 0.9452,0.72419 1.95313,1.44865 2.92931,2.17336 0.15774,0.28321 0.31525,0.5667 0.47247,0.85045 -0.0942,9.20007 -0.1887,18.39458 -0.28348,27.592261"
             inkscape:path-effect="#path-effect134"
             inkscape:connector-curvature="0"
             id="path132"
             d="m -838.0677,-124.15997 c 0.95616,0.70941 1.95292,1.44894 2.51983,1.95284 0.56691,0.5039 0.72441,0.7874 0.75592,5.52922 0.0315,4.74182 -0.063,13.93633 -0.15745,23.134011"
             style="fill:#ff6600;stroke:#ff6600;stroke-width:0.26458332px;stroke-linecap:butt;stroke-linejoin:miter;stroke-opacity:1" />
          <path
             inkscape:original-d="m -834.94937,-93.543907 c 2.6e-4,7.496265 2.6e-4,14.992797 0,22.489591"
             inkscape:path-effect="#path-effect140"
             inkscape:connector-curvature="0"
             id="path138"
             d="m -834.94937,-93.543907 c 0,7.496265 0,14.992797 0,22.489591"
             style="fill:#ff6600;stroke:#ff6600;stroke-width:0.26458332px;stroke-linecap:butt;stroke-linejoin:miter;stroke-opacity:1" />
          <path
             inkscape:original-d="m -830.88614,-92.882441 c 0.0318,7.149785 0.0633,14.23684 0.0945,21.355656"
             inkscape:path-effect="#path-effect146"
             inkscape:connector-curvature="0"
             id="path144"
             d="m -830.88614,-92.882441 c 0.0316,7.149786 0.063,14.236841 0.0945,21.355656"
             style="fill:#ff6600;stroke:#ff6600;stroke-width:0.26458332px;stroke-linecap:butt;stroke-linejoin:miter;stroke-opacity:1" />
          <path
             inkscape:original-d="m -830.79163,-71.526785 c 2.6e-4,-2.65e-4 2.6e-4,-2.65e-4 0,0 z"
             inkscape:path-effect="#path-effect150"
             inkscape:connector-curvature="0"
             id="path148"
             d="m -830.79163,-71.526785 c 0,0 0,0 0,0 z"
             style="fill:#ff6600;stroke:#ff6600;stroke-width:0.26458332px;stroke-linecap:butt;stroke-linejoin:miter;stroke-opacity:1" />
          <path
             inkscape:original-d="m -830.79163,-71.526785 c 2.6e-4,-2.65e-4 2.6e-4,-2.65e-4 0,0 2.6e-4,-2.65e-4 2.6e-4,-2.65e-4 0,0 0,0 2.4e-4,1.511641 -3e-5,2.267857 -0.78745,0.03124 -1.51164,0.06273 -2.26785,0.09449"
             inkscape:path-effect="#path-effect154"
             inkscape:connector-curvature="0"
             id="path152"
             d="m -830.79163,-71.526785 c 0,0 0,0 0,0 0,0 0,0 0,0 -10e-6,0.755952 -2e-5,1.511641 -0.39372,1.906152 -0.39369,0.394511 -1.11794,0.424687 -1.87416,0.456195"
             style="fill:#ff6600;stroke:#ff6600;stroke-width:0.26458332px;stroke-linecap:butt;stroke-linejoin:miter;stroke-opacity:1" />
          <path
             inkscape:original-d="m -834.94937,-71.054316 c 5e-5,0.475517 -1.6e-4,0.951296 0,1.427342 0.0838,0.07773 0.16732,0.155641 0.25059,0.23386 0.14501,0.04427 0.28979,0.08883 0.43431,0.133636 0.18378,0.02199 0.36774,0.04428 0.55123,0.06682 0.21812,0.0091 0.43651,0.01855 0.65437,0.02822"
             inkscape:path-effect="#path-effect158"
             inkscape:connector-curvature="0"
             id="path156"
             d="m -834.94937,-71.054316 c 0,0.475517 0,0.951296 0.0418,1.228311 0.0418,0.277015 0.12529,0.354944 0.2395,0.416212 0.11422,0.06127 0.25901,0.105817 0.42319,0.139203 0.16418,0.03339 0.34813,0.05568 0.54895,0.07151 0.20082,0.01583 0.41921,0.02524 0.63708,0.03464"
             style="fill:#ff6600;stroke:#ff6600;stroke-width:0.26458332px;stroke-linecap:butt;stroke-linejoin:miter;stroke-opacity:1" />
        </g>
        <flowRoot
           xml:space="preserve"
           id="flowRoot171"
           style="font-style:normal;font-weight:normal;font-size:96px;line-height:1.25;font-family:sans-serif;letter-spacing:0px;word-spacing:0px;fill:#ff6600;fill-opacity:1;stroke:none"
           transform="matrix(0.49013556,0,0,0.43137825,912.44491,194.61361)"><flowRegion
             id="flowRegion173"
             style="font-size:96px;fill:#ff6600"><rect
               id="rect175"
               width="347.14285"
               height="154.28572"
               x="-3250"
               y="-566.05176"
               style="font-size:96px;fill:#ff6600" /></flowRegion><flowPara
             id="flowPara177"
             style="font-style:normal;font-variant:normal;font-weight:bold;font-stretch:normal;font-size:96px;font-family:sans-serif;-inkscape-font-specification:'sans-serif Bold';fill:#ff6600">C</flowPara></flowRoot>        <text
           xml:space="preserve"
           style="font-style:normal;font-weight:normal;font-size:31.00455093px;line-height:1.25;font-family:sans-serif;letter-spacing:0px;word-spacing:0px;fill:#ff6600;fill-opacity:1;stroke:none;stroke-width:0.48444611"
           x="-645.6955"
           y="-48.397099"
           id="text181"
           transform="scale(1.129047,0.88570273)"><tspan
             sodipodi:role="line"
             id="tspan179"
             x="-645.6955"
             y="-48.397099"
             style="font-style:normal;font-variant:normal;font-weight:bold;font-stretch:normal;font-size:41.33940506px;font-family:sans-serif;-inkscape-font-specification:'sans-serif Bold';fill:#ff6600;stroke-width:0.48444611">A</tspan></text>
        <flowRoot
           xml:space="preserve"
           id="flowRoot171-1"
           style="font-style:normal;font-weight:normal;font-size:96px;line-height:1.25;font-family:sans-serif;letter-spacing:0px;word-spacing:0px;fill:#ff6600;fill-opacity:1;stroke:none"
           transform="matrix(0.48387023,0,0,0.43137825,793.20376,192.70409)"><flowRegion
             id="flowRegion173-9"
             style="font-size:96px;fill:#ff6600"><rect
               id="rect175-8"
               width="347.14285"
               height="154.28572"
               x="-3250"
               y="-566.05176"
               style="font-size:96px;fill:#ff6600" /></flowRegion><flowPara
             id="flowPara177-0"
             style="font-style:normal;font-variant:normal;font-weight:bold;font-stretch:normal;font-size:96px;font-family:sans-serif;-inkscape-font-specification:'sans-serif Bold';fill:#ff6600">C</flowPara></flowRoot>        <path
           style="fill:#ff6600;stroke:#ff6600;stroke-width:4.04061031"
           d="m -2780.0729,524.94061 c -161.991,-34.04069 -292.9497,-153.68554 -342.7223,-313.11367 -15.3125,-49.04804 -20.1866,-91.80885 -17.8646,-156.72808 2.4711,-69.088405 13.7617,-117.289899 40.8863,-174.55043 133.8533,-282.5671 492.2646,-352.71629 717.852,-140.49986 40.6324,38.22412 67.3762,73.67592 92.3055,122.36119 33.7783,65.966854 47.8268,117.671423 51.8288,190.752557 12.5172,228.578613 -150.2735,434.855603 -374.1195,474.058043 -47.0078,8.23254 -123.0463,7.2017 -168.1662,-2.27975 z m 175.251,-10.49674 c 151.6301,-26.81422 282.7386,-142.09913 334.4248,-294.063 21.5832,-63.4573 28.9376,-152.410444 17.9933,-217.6345028 -30.8024,-183.5715572 -173.3299,-330.3202972 -354.4384,-364.9356572 -46.23,-8.83596 -121.9717,-8.68485 -165.1494,0.32949 -171.1364,35.72861 -298.3205,157.0592 -344.4953,328.640381 -9.4366,35.0655665 -10.5145,46.319607 -10.5145,109.781516 0,63.461903 1.0779,74.715933 10.5145,109.781523 43.6924,162.3568 163.1692,282.96554 319.9808,323.01239 61.9666,15.82518 121.9616,17.41762 191.6842,5.08786 z"
           id="path207"
           inkscape:connector-curvature="0"
           transform="scale(0.26458333)" />
        <path
           style="fill:#ff6600;stroke:#ff6600;stroke-width:4.04061031"
           d="m -2739.6668,466.16003 c -4.4446,-1.04373 -20.4558,-4.72537 -35.5804,-8.18142 -81.7466,-18.67958 -167.759,-77.1422 -219.3343,-149.08143 -99.4715,-138.74696 -96.7694,-333.143628 6.5363,-470.24067 80.1577,-106.37727 201.3111,-159.87715 337.6691,-149.11059 154.5165,12.20033 289.5029,129.6505 331.6204,288.539246 14.4206,54.401935 15.4821,139.325884 2.3925,191.410964 -30.7423,122.32697 -114.3045,222.9517 -223.2934,268.88746 -49.7178,20.95468 -77.742,26.72003 -137.3807,28.26289 -30.0015,0.77616 -58.1848,0.55724 -62.6295,-0.48645 z m 141.4214,-21.62049 c 43.182,-11.06526 100.19,-39.67718 136.4214,-68.46895 137.6167,-109.35891 181.4343,-306.890498 103.8006,-467.937138 -67.6212,-140.276262 -218.9188,-225.621772 -367.8845,-207.520052 -161.5693,19.63329 -286.6452,136.59592 -321.0694,300.2427132 -7.7906,37.0352918 -7.5004,116.4452768 0.5689,155.6783868 30.8693,150.08661 147.729,265.42687 298.0203,294.14543 38.7305,7.40086 108.4208,4.55074 150.1427,-6.14039 z"
           id="path209"
           inkscape:connector-curvature="0"
           transform="scale(0.26458333)" />
        <path
           style="fill:#ff6600;stroke:#ff6600;stroke-width:4.04061031"
           d="m -2749.7683,530.31793 c -7.7782,-0.84687 -29.5975,-5.32229 -48.4873,-9.94531 -175.7715,-43.01775 -315.7572,-198.63701 -339.7452,-377.68792 -7.023,-52.421177 -2.546,-135.1856297 9.9604,-184.131905 31.8179,-124.525845 121.5257,-235.873535 236.8508,-293.985415 143.1365,-72.12599 311.224,-62.67611 445.1043,25.02375 111.9388,73.32688 189.2988,196.28406 205.2677,326.255813 23.5203,191.432287 -69.3189,373.048667 -238.2298,466.036237 -34.4685,18.97535 -103.1119,41.56083 -142.7239,46.95985 -29.8867,4.07354 -97.0251,4.84716 -127.997,1.4749 z m 35.4025,-12.06494 c -3.8632,-1.01132 -11.1363,-1.04801 -16.1625,-0.0816 -5.0261,0.96648 -1.8654,1.79395 7.024,1.8388 8.8893,0.0449 13.0017,-0.74593 9.1385,-1.75726 z m 64.5185,0.33497 c -1.3427,-1.34265 -4.8278,-1.48618 -7.7446,-0.3188 -3.2233,1.28984 -2.2659,2.2473 2.4412,2.44117 4.2595,0.17536 6.646,-0.77955 5.3034,-2.12221 z m -102.9514,-4.27537 c -2.778,-1.12091 -7.3236,-1.12091 -10.1016,0 -2.7779,1.12091 -0.505,2.03804 5.0508,2.03804 5.5558,0 7.8287,-0.91713 5.0508,-2.03804 z m -22.3076,-3.80581 c -1.3426,-1.34265 -4.8277,-1.48618 -7.7445,-0.3188 -3.2233,1.28984 -2.2659,2.2473 2.4412,2.44117 4.2595,0.17536 6.646,-0.77955 5.3033,-2.12221 z m -16.1624,-4.04061 c -1.3427,-1.34265 -4.8277,-1.48618 -7.7445,-0.3188 -3.2233,1.28984 -2.2659,2.2473 2.4412,2.44117 4.2595,0.17536 6.6459,-0.77955 5.3033,-2.12221 z m -80.0546,-27.34948 c -4.1252,-3.69113 -27.9476,-14.66018 -27.9476,-12.86853 0,2.51168 20.9489,13.99574 25.9273,14.21317 2.0371,0.0889 2.9463,-0.51611 2.0203,-1.34464 z m 268.3125,-14.78742 c 25.2607,-6.07631 22.1075,-9.39846 -3.7363,-3.93644 -10.8804,2.29951 -44.3293,5.83448 -74.3308,7.85543 l -54.5482,3.67453 56.5685,-1.45409 c 31.1127,-0.79972 65.3338,-3.56249 76.0468,-6.13943 z m -173.0215,-6.3282 c -68.9262,-18.77958 -120.764,-48.47366 -174.6734,-100.05783 -166.8995,-159.70059 -152.678,-443.667633 29.4687,-588.41292 36.2851,-28.83444 92.8378,-57.5009 137.1235,-69.50767 45.0571,-12.2159 152.4873,-13.16961 191.929,-1.70385 36.0018,10.46575 86.7144,34.30809 117.6579,55.31635 76.116,51.67702 139.8736,147.887714 159.1073,240.094438 7.2051,34.541075 9.8369,109.697352 5.2352,149.502572 -2.5781,22.30082 -2.4424,22.94845 1.6922,8.08122 2.4722,-8.88934 4.5498,-41.61828 4.6169,-72.730978 0.097,-44.933767 -1.6949,-63.887635 -8.7122,-92.154116 -31.8559,-128.319986 -119.3873,-230.773086 -237.1186,-277.540946 -49.4134,-19.62912 -88.2131,-25.52314 -153.1997,-23.27246 -47.6306,1.6496 -62.5918,3.79477 -91.3095,13.09216 -137.5092,44.51884 -232.8586,147.12278 -267.3781,287.721246 -11.6966,47.64033 -12.5073,130.125994 -1.7397,177.006934 28.5149,124.15069 110.3187,226.14163 221.9954,276.77828 27.1402,12.30592 79.5209,27.83532 93.5894,27.74662 4.4447,-0.0283 -8.2832,-4.5096 -28.2843,-9.95905 z m 313.1473,0.11435 c 0,-1.11117 -3.6365,-0.0739 -8.0812,2.30464 -4.4447,2.37871 -8.0812,5.23409 -8.0812,6.34526 0,1.11116 3.6365,0.0739 8.0812,-2.30465 4.4447,-2.3787 8.0812,-5.23408 8.0812,-6.34525 z m -76.7716,-15.07224 c 96.5149,-42.15945 170.6307,-118.95145 209.4167,-216.97851 6.5948,-16.66751 13.1091,-36.66853 14.4762,-44.44671 1.3671,-7.77817 -2.7067,0.40406 -9.0528,18.18275 -22.4929,63.01319 -50.4513,108.95453 -93.0689,152.93063 -42.6493,44.00895 -77.038,67.59633 -130.8957,89.78211 -18.316,7.54499 -30.5745,13.72919 -27.2409,13.74272 3.3335,0.0121 19.6979,-5.9323 36.3654,-13.21299 z m -383.8579,7.74007 c 0,-0.85556 -5.0003,-4.60003 -11.1117,-8.32103 l -11.1117,-6.76544 9.539,8.32103 c 9.3085,8.11993 12.6844,9.92051 12.6844,6.76544 z m 308.5744,-4.27683 c 67.1421,-12.84639 130.0723,-47.9487 184.38,-102.84678 44.677,-45.16267 70.2552,-86.80285 88.9096,-144.74096 16.8337,-52.28319 21.5936,-88.13476 18.9272,-142.559634 -4.9463,-100.957979 -41.2531,-181.516426 -113.8162,-252.538136 -40.5609,-39.69939 -85.863,-67.40638 -140.6349,-86.01297 -35.9325,-12.20667 -47.849,-14.28155 -92.0783,-16.03246 -83.9159,-3.32201 -150.6882,15.09928 -218.0481,60.1556 -86.3604,57.7655 -148.3979,158.363691 -161.9168,262.559552 -5.6229,43.337565 -1.7681,110.818138 8.6599,151.596708 32.536,127.23206 135.6659,231.22561 264.5254,266.7408 39.4803,10.8812 114.4939,12.59401 161.0922,3.67828 z m -336.8587,-16.39093 c -2.7666,-3.33351 -5.9392,-6.06092 -7.0504,-6.06092 -1.1112,0 0.2432,2.72741 3.0098,6.06092 2.7666,3.3335 5.9392,6.06091 7.0504,6.06091 1.1112,0 -0.2432,-2.72741 -3.0098,-6.06091 z M -2992.2049,393.75 c -16.5563,-16.66752 -31.0115,-30.30458 -32.1226,-30.30458 -1.1112,0 11.5257,13.63706 28.082,30.30458 16.5563,16.66751 31.0115,30.30457 32.1226,30.30457 1.1112,0 -11.5257,-13.63706 -28.082,-30.30457 z m -122.4987,-216.93026 c -1.2899,-3.22332 -2.2473,-2.2659 -2.4412,2.44121 -0.1755,4.25945 0.7795,6.64596 2.1222,5.3033 1.3427,-1.34269 1.4862,-4.82772 0.319,-7.74451 z m -4.1248,-20.45559 c -1.1209,-2.77792 -2.038,-0.50508 -2.038,5.05076 0,5.55584 0.9171,7.82868 2.038,5.05076 1.1209,-2.77792 1.1209,-7.3236 0,-10.10152 z m -3.9165,-22.14647 c -1.0245,-3.93139 -1.9301,-1.69313 -2.0124,4.97387 -0.082,6.66701 0.7558,9.88358 1.8627,7.14797 1.1068,-2.73562 1.1741,-8.19044 0.1497,-12.12184 z M -2249.997,29.037814 c -1.0113,-3.863187 -1.8021,0.249305 -1.7573,9.138486 0.045,8.889342 0.8724,12.05011 1.8388,7.023954 0.9665,-5.026155 0.9298,-12.299253 -0.082,-16.16244 z M -3122.7449,8.9587771 c -1.0245,-3.9313844 -1.9301,-1.693145 -2.0124,4.9738619 -0.082,6.667007 0.7558,9.883575 1.8627,7.147961 1.1068,-2.735615 1.1741,-8.190443 0.1497,-12.1218229 z m 868.6071,-10.1784264 c -1.1209,-2.7779195 -2.0381,-0.5050762 -2.0381,5.0507628 0,5.555839 0.9172,7.8286825 2.0381,5.0507627 1.1209,-2.7779195 1.1209,-7.323606 0,-10.1015255 z M -3118.8284,-13.34148 c -1.1209,-2.777919 -2.038,-0.505076 -2.038,5.0507629 0,5.555839 0.9171,7.82868225 2.038,5.0507628 1.1209,-2.7779195 1.1209,-7.3236057 0,-10.1015257 z m 860.7341,-7.828682 c -1.2898,-3.223328 -2.2473,-2.265877 -2.4411,2.441203 -0.1754,4.259474 0.7795,6.64596 2.1222,5.303301 1.3426,-1.342662 1.4861,-4.827689 0.3188,-7.744504 z m -856.6093,-8.08122 c -1.2899,-3.223328 -2.2473,-2.265878 -2.4412,2.441203 -0.1755,4.259474 0.7795,6.645959 2.1222,5.303301 1.3427,-1.342663 1.4862,-4.827689 0.319,-7.744504 z m 852.5687,-8.081221 c -1.2898,-3.223328 -2.2473,-2.265877 -2.4412,2.441204 -0.1753,4.259473 0.7796,6.645959 2.1223,5.3033 1.3426,-1.342662 1.4861,-4.827688 0.3188,-7.744504 z m -10.8605,-34.44549 c -4.4027,-6.866165 -4.5167,-6.857352 -2.3063,0.178231 1.279,4.07085 2.469,9.525674 2.6444,12.121831 0.2303,3.40688 0.8719,3.357286 2.3063,-0.178232 1.093,-2.69419 -0.097,-8.149014 -2.6444,-12.12183 z m -19.9842,-49.258157 c -11.4603,-22.46408 -14.4376,-21.1256 -3.4258,1.5401 4.835,9.95175 9.4839,17.40106 10.331,16.554 0.847,-0.84706 -2.2603,-8.9894 -6.9052,-18.0941 z m -56.7683,-87.26467 c -2.7665,-3.3335 -5.9392,-6.06092 -7.0504,-6.06092 -1.1112,0 0.2432,2.72742 3.0098,6.06092 2.7666,3.3335 5.9393,6.06091 7.0504,6.06091 1.1112,0 -0.2432,-2.72741 -3.0098,-6.06091 z m -614.1727,-62.42721 c 0,-1.11116 -13.6371,11.52574 -30.3046,28.08202 -16.6675,16.55628 -30.3046,31.01146 -30.3046,32.12263 0,1.11117 13.6371,-11.52574 30.3046,-28.08202 16.6675,-16.55628 30.3046,-31.01146 30.3046,-32.12263 z m 557.6042,5.85867 c -2.7666,-3.33351 -5.9393,-6.06092 -7.0504,-6.06092 -1.1112,0 0.2432,2.72741 3.0098,6.06092 2.7665,3.3335 5.9392,6.06091 7.0504,6.06091 1.1112,0 -0.2433,-2.72741 -3.0098,-6.06091 z m -544.967,-13.13199 c 5.026,-6.40863 4.8831,-6.55155 -1.5255,-1.52555 -6.7307,5.27853 -8.8711,8.59662 -5.5456,8.59662 0.8391,0 4.0211,-3.18198 7.0711,-7.07107 z m 198.4847,-84.49837 c -2.778,-1.12092 -7.3236,-1.12092 -10.1016,0 -2.7779,1.12091 -0.505,2.03803 5.0508,2.03803 5.5558,0 7.8287,-0.91712 5.0508,-2.03803 z m 139.3168,0.23482 c -1.3427,-1.34267 -4.8277,-1.48621 -7.7445,-0.319 -3.2233,1.28987 -2.2659,2.24732 2.4412,2.4412 4.2595,0.17545 6.646,-0.77954 5.3033,-2.1222 z m -106.992,-4.27543 c -2.7779,-1.12092 -7.3236,-1.12092 -10.1015,0 -2.7779,1.12091 -0.5051,2.03803 5.0508,2.03803 5.5558,0 7.8287,-0.91712 5.0507,-2.03803 z m 70.6266,0.23482 c -1.3427,-1.34267 -4.8278,-1.48621 -7.7446,-0.319 -3.2233,1.28987 -2.2659,2.24732 2.4412,2.4412 4.2595,0.17545 6.646,-0.77954 5.3034,-2.1222 z"
           id="path211"
           inkscape:connector-curvature="0"
           transform="scale(0.26458333)" />
      </g>
    </g>
  </g>
</svg>
